<svg width="294" height="235" viewBox="0 0 294 235" fill="none" xmlns="http://www.w3.org/2000/svg">
    <path
        d="M216.442 79.7957C218.512 94.5137 206.48 109.26 187.958 110.346C179.301 110.853 171.404 111.016 164.932 117.876C162.795 120.141 159.228 121.36 156.088 122.296C152.53 123.358 151.158 125.259 151.622 128.794C151.73 129.612 151.606 130.458 151.625 131.29C151.708 134.946 150.255 137.75 146.403 137.876C142.452 138.004 141.033 135.17 141.003 131.538C140.991 130.04 140.902 128.537 140.988 127.044C141.122 124.72 140.208 123.228 137.922 122.584C116.436 116.534 103.362 88.8177 112.055 66.9117C112.225 66.4817 112.136 65.9477 112.195 65.0547C104.255 62.2747 96.2631 59.4517 89.5601 54.0107C82.1531 47.9997 76.7761 40.9837 76.8341 30.8577C76.9221 15.6377 90.1751 5.28775 104.977 8.76575C111.481 10.2938 116.553 14.3877 122.604 18.0127C126.917 7.41274 133.885 0.235756 145.85 0.00575619C157.984 -0.228244 165.162 6.69075 169.574 17.3647C173.155 16.8337 175.218 14.2008 177.866 12.6758C185.098 8.51275 192.59 6.47575 200.779 9.40775C217.04 15.2337 221.425 34.3078 209.613 47.7848C206.544 51.2868 203.008 54.2947 198.476 57.5927C207.648 62.5927 214.445 69.1127 216.442 79.7947M133.854 56.0288C138.354 56.0318 142.853 56.0578 147.352 56.0338C157.838 55.9788 168.42 56.6428 178.678 53.9728C188.337 51.4588 197.248 47.3547 203.11 38.6747C206.554 33.5747 206.51 28.1817 203.276 23.7547C200.31 19.6927 194.965 18.0347 189.398 19.3897C184.727 20.5277 180.981 23.2588 177.312 26.1838C172.199 30.2608 168.205 35.4437 163.545 39.9667C153.003 50.2017 139.441 50.1718 128.869 39.8647C124.337 35.4467 119.962 30.8507 115.222 26.6697C111.085 23.0197 106.447 20.0328 100.751 19.2338C92.1051 18.0218 85.7311 24.7088 87.4571 33.2968C88.6491 39.2248 92.3671 43.3788 97.2141 46.6538C108 53.9438 120.102 56.2598 133.854 56.0288ZM167.315 97.8327C176.316 99.7337 185.3 101.535 194.36 98.0287C203.715 94.4087 208.157 85.9708 204.834 77.9308C201.23 69.2078 187.822 63.1727 179.833 66.8467C180.894 70.7847 182.744 74.5737 182.595 78.8497C182.385 84.8677 180.813 86.5738 174.847 86.6038C167.681 86.6388 160.514 86.5507 153.349 86.6347C151.336 86.6587 149.112 85.9748 146.917 87.8148C152.589 93.3278 159.487 95.6027 167.315 97.8327ZM136.679 32.3568C139.964 35.4068 143.629 37.4708 148.324 36.6668C154.067 35.6838 158.452 31.2828 159.164 25.8608C159.991 19.5458 156.824 14.1907 150.74 11.6137C146.037 9.62274 139.745 11.2318 136.304 15.3068C132.458 19.8608 132.41 26.1338 136.679 32.3568ZM138.277 110.98C148.335 114.505 155.538 113.474 160.099 107.83C158.997 106.407 157.216 106.265 155.736 105.597C147.329 101.807 139.366 97.4367 133.419 90.0827C130.141 86.0287 126.551 85.4817 120.816 88.0847C122.624 98.4027 128.32 105.827 138.277 110.98ZM138.813 75.9747H170.516C169.743 69.8077 167.243 66.8627 163.168 66.8327C152.063 66.7497 140.958 66.7227 129.853 66.6927C123.593 66.6767 121.731 68.6367 121.507 75.9747H138.812H138.813ZM89.2041 225.178C87.7221 218.134 86.3541 211.486 83.7661 203.854C81.6481 212.584 79.6661 220.11 78.0391 227.714C77.1421 231.908 74.9021 233.574 70.7111 233.429C66.4651 233.284 64.6341 231.253 63.8191 227.132C60.6221 210.967 57.1561 194.855 53.7301 178.736C53.1001 175.77 52.4731 172.785 56.5631 172.168C60.0841 171.638 63.7361 171.443 64.7101 176.35C66.2961 184.343 67.9651 192.32 69.6571 200.292C70.1711 202.708 70.8781 205.084 71.8311 208.772C74.0301 199.924 76.0141 192.38 77.7461 184.779C78.6061 181.012 80.3661 178.988 84.5061 178.933C88.8941 178.874 90.1431 181.357 90.9051 185.015C92.4821 192.587 94.3121 200.106 97.0471 207.618C99.0471 197.74 101.05 187.862 103.049 177.984C103.589 175.309 104.156 172.754 107.523 172.149C113.377 171.095 115.745 173.381 114.504 179.183C111.234 194.476 107.908 209.757 104.619 225.046C103.739 229.135 103.406 233.322 97.4791 233.522C91.6171 233.719 90.0491 230.249 89.2041 225.178ZM282.247 229.71C282.172 220.287 282.172 211.308 282.172 201.113C278.459 207.036 276.734 212.535 274.505 217.777C273.239 220.755 271.341 222.275 268.084 222.245C264.92 222.216 262.75 220.975 261.456 217.968C259.292 212.941 256.936 207.997 253.512 203.143C253.512 211.293 253.462 219.446 253.534 227.596C253.568 231.556 251.751 233.449 247.811 233.436C244.433 233.423 242.333 231.961 242.328 228.423C242.304 211.271 242.32 194.119 242.39 176.967C242.4 174.404 243.486 172.339 246.393 172.137C249.696 171.906 253.083 171.36 254.791 175.548C257.996 183.406 261.388 191.188 264.781 198.968C265.563 200.762 266.097 202.756 267.827 204.143C270.005 203.278 270.179 201.087 270.903 199.367C274.069 191.85 277.336 184.365 280.14 176.711C281.882 171.955 285.302 171.548 289.333 172.101C293.399 172.657 293.425 175.851 293.425 178.942C293.421 194.93 293.41 210.917 293.399 226.904C293.397 229.688 293.143 232.493 289.817 233.209C286.772 233.864 283.741 233.809 282.247 229.709V229.71ZM186.926 203.296C186.93 194.809 186.903 186.821 186.95 178.834C186.986 172.715 187.678 172.064 193.95 172.01C198.442 171.972 202.935 171.948 207.427 171.99C216.932 172.08 223.09 176.65 225.087 185.029C227.464 195.003 224.357 202.454 215.942 206.987C215.229 207.371 214.553 207.824 213.162 208.668L221.869 221.371C222.715 222.606 223.716 223.765 224.374 225.094C225.528 227.426 228.639 229.59 225.682 232.536C223.62 234.592 217.44 233.728 215.324 230.896C211.146 225.302 207.264 219.488 203.24 213.78C202.031 212.065 201.237 209.91 198.604 209.249C196.781 211.809 197.84 214.699 197.698 217.369C197.504 221.019 197.56 224.69 197.663 228.348C197.764 231.946 196.058 233.476 192.556 233.532C188.883 233.592 186.944 232.13 186.967 228.256C187.016 220.103 186.947 211.949 186.926 203.296ZM197.633 188.918C197.661 199.238 198.153 199.668 208.277 198.239C212.643 197.623 215.056 194.76 214.9 190.381C214.698 184.733 211.294 182.608 203.372 182.453C199.206 182.371 196.903 183.418 197.633 188.918ZM4.62707 176.663C11.5721 170.668 19.2451 169.818 27.3781 172.186C34.6821 174.313 39.7511 181.786 39.4451 189.342C39.3191 192.426 38.1131 194.46 34.7411 194.575C31.6451 194.681 29.3451 194.162 28.8271 190.24C27.9371 183.508 24.4431 180.966 17.9971 181.542C14.2131 181.88 11.6891 183.752 11.0361 187.515C10.4141 191.094 12.1931 193.786 15.3711 195.115C19.0371 196.65 22.9481 197.587 26.7031 198.922C36.3131 202.338 39.8771 207.547 39.6881 217.705C39.5161 226.941 33.6281 233.155 23.8401 234.43C11.8771 235.99 3.25708 231.722 0.632076 222.855C0.214076 221.445 0.0890766 219.919 0.0200766 218.438C-0.104923 215.773 0.266059 213.328 3.67706 213.012C6.76206 212.726 9.23507 213.382 10.3431 216.785C12.5711 223.628 17.1951 225.955 24.0081 223.671C26.8571 222.715 28.9301 220.942 29.1121 217.611C29.2891 214.381 28.5041 211.713 25.4121 210.065C22.2871 208.4 18.8831 207.61 15.5091 206.731C0.98006 202.944 -4.12193 189.323 4.62707 176.663ZM161.849 199.908C164.389 208.946 166.861 217.582 169.205 226.253C169.932 228.942 171.115 232.253 167.052 233.217C163.548 234.049 160.204 233.893 158.621 229.35C155.775 221.186 155.553 221.776 147.295 221.017C141.121 220.45 138.423 222.62 137.582 228.39C137.167 231.237 135.626 233.197 132.352 233.471C127.345 233.891 125.592 232.047 126.911 227.121C131.387 210.407 136.007 193.731 140.421 177.002C141.483 172.98 143.909 171.902 147.744 171.911C151.599 171.919 154.592 172.446 155.689 176.863C157.573 184.447 159.704 191.97 161.849 199.908ZM152.396 206.46L148.532 192.73C145.586 198.262 144.106 203.84 143.229 210.227C145.762 210.227 147.564 210.272 149.363 210.215C151.284 210.155 153.245 210.043 152.396 206.46Z"
        fill="black" />
</svg>